<?xml version="1.0" encoding="utf-8"?>
<!-- Generator: Adobe Illustrator 28.0.0, SVG Export Plug-In . SVG Version: 6.00 Build 0)  -->
<svg version="1.1" id="Layer_1" xmlns="http://www.w3.org/2000/svg" xmlns:xlink="http://www.w3.org/1999/xlink" x="0px" y="0px"
	 viewBox="0 0 324 311.7" style="enable-background:new 0 0 324 311.7;" xml:space="preserve">
<style type="text/css">
	.st0{opacity:0.5;}
	.st1{opacity:0.8;fill:#25B7E6;filter:url(#Adobe_OpacityMaskFilter);enable-background:new    ;}
	.st2{opacity:0.7;fill:none;stroke:#25B7E6;stroke-width:17;stroke-miterlimit:10;enable-background:new    ;}
	.st3{opacity:0.6;fill:none;stroke:#25B7E6;stroke-width:13.5;stroke-miterlimit:10;enable-background:new    ;}
	.st4{opacity:0.5;fill:none;stroke:#25B7E6;stroke-width:10.55;stroke-miterlimit:10;enable-background:new    ;}
	.st5{opacity:0.4;fill:none;stroke:#25B7E6;stroke-width:12.43;stroke-miterlimit:10;enable-background:new    ;}
	.st6{mask:url(#mask0_299_59_00000074434538830101618550000007061037812619368383_);}
	.st7{fill:#50CEF5;}
</style>
<g class="st0">
	<defs>
		<filter id="Adobe_OpacityMaskFilter" filterUnits="userSpaceOnUse" x="-126" y="10.7" width="447" height="301">
			<feColorMatrix  type="matrix" values="1 0 0 0 0  0 1 0 0 0  0 0 1 0 0  0 0 0 1 0"/>
		</filter>
	</defs>
	
		<mask maskUnits="userSpaceOnUse" x="-126" y="10.7" width="447" height="301" id="mask0_299_59_00000074434538830101618550000007061037812619368383_">
		<path class="st1" d="M295.9,203.3c0-19.9-16.1-36-36-36c-14.8,0-27.5,8.9-33,21.7c-5.6-12.7-18.2-21.7-33-21.7
			c-19.9,0-36,16.1-36,36c0,11.1,2.8,13.8,12.9,27.6l55.4,64.5c1.8,2,4.9,2,6.6-0.1L284,230C294.8,212.4,295.9,213.9,295.9,203.3
			L295.9,203.3z"/>
		<path class="st2" d="M226.8,327.9c58.4,0,105.7-47.3,105.7-105.7c0-58.4-47.3-105.7-105.7-105.7s-105.7,47.3-105.7,105.7
			C121.1,280.6,168.5,327.9,226.8,327.9z"/>
		<path class="st3" d="M227.5,364.7c78.4,0,141.9-63.5,141.9-141.9S305.8,81,227.5,81S85.6,144.5,85.6,222.9
			S149.1,364.7,227.5,364.7z"/>
		<path class="st4" d="M228.5,395c94.9,0,171.8-76.9,171.8-171.8S323.3,51.5,228.5,51.5S56.7,128.4,56.7,223.3S133.6,395,228.5,395z
			"/>
		<path class="st5" d="M228.5,424.6c111.8,0,202.4-90.6,202.4-202.4S340.3,19.8,228.5,19.8S26.1,110.4,26.1,222.2
			S116.7,424.6,228.5,424.6z"/>
	</mask>
	<g class="st6">
		<path class="st7" d="M-117,10.7h429c5,0,9,4,9,9v283c0,5-4,9-9,9h-429c-5,0-9-4-9-9v-283C-126,14.8-122,10.7-117,10.7z"/>
	</g>
</g>
</svg>
