<?xml version="1.0" encoding="utf-8"?>
<!-- Generator: Adobe Illustrator 24.0.3, SVG Export Plug-In . SVG Version: 6.00 Build 0)  -->
<svg xmlns="http://www.w3.org/2000/svg" xmlns:xlink="http://www.w3.org/1999/xlink" width="184" height="33">
<style type="text/css">
	.st0{fill:#C0D631;}
</style>
<g id="Layer_1">
</g>
<g id="Layer_3">
	<g>
		<path class="st0" d="M15.92,14.86c-0.15-3.64-2.93-5.27-6.3-5.27c-2.61,0-5.69,1.03-5.69,4.16c0,2.61,2.98,3.55,5,4.06l3.92,0.89
			c3.35,0.52,6.85,2.46,6.85,6.67c0,5.22-5.17,7.24-9.65,7.24c-5.59,0-9.43-2.61-9.87-8.5h2.93c0.22,3.96,3.18,6.01,7.09,6.01
			c2.76,0,6.58-1.21,6.58-4.58c0-2.81-2.61-3.72-5.27-4.38l-3.77-0.84c-3.82-1.03-6.72-2.34-6.72-6.43c0-4.9,4.8-6.77,9.04-6.77
			c4.8,0,8.62,2.51,8.82,7.73C18.85,14.86,15.92,14.86,15.92,14.86z"/>
		<path class="st0" d="M43.23,31.9h-2.71v-4.36h-0.1c-1.53,3.23-4.7,5.05-8.3,5.05c-6.06,0-8.45-3.55-8.45-9.14V7.84h2.93v15.66
			c0.15,4.33,1.77,6.62,6.43,6.62c5.02,0,7.24-4.75,7.24-9.65V7.84h2.93V31.9H43.23z"/>
		<path class="st0" d="M63.4,14.86c-0.15-3.64-2.93-5.27-6.3-5.27c-2.61,0-5.69,1.03-5.69,4.16c0,2.61,2.98,3.55,5,4.06l3.92,0.89
			c3.35,0.52,6.85,2.46,6.85,6.67c0,5.22-5.17,7.24-9.65,7.24c-5.59,0-9.43-2.61-9.87-8.5h2.93c0.22,3.96,3.18,6.01,7.09,6.01
			c2.76,0,6.58-1.21,6.58-4.58c0-2.81-2.61-3.72-5.27-4.38l-3.77-0.84c-3.82-1.03-6.72-2.34-6.72-6.43c0-4.9,4.8-6.77,9.04-6.77
			c4.8,0,8.62,2.51,8.82,7.73C66.33,14.86,63.4,14.86,63.4,14.86z"/>
		<path class="st0" d="M79.94,7.79h4.85v4.43h-4.85v11.94c0,2.24,0.57,2.81,2.81,2.81c0.69,0,1.35-0.05,2.04-0.2v5.17
			c-1.11,0.2-2.56,0.22-3.87,0.22c-4.06,0-7.61-0.94-7.61-5.74V12.2h-4.01V7.77h4.01V0.53h6.62V7.79z"/>
		<path class="st0" d="M88.78,7.79h6.3v4.48h0.1c1.21-3.03,4.48-5.12,7.68-5.12c0.47,0,1.03,0.1,1.45,0.25v6.16
			c-0.62-0.15-1.58-0.22-2.39-0.22c-4.85,0-6.53,3.5-6.53,7.73v10.86h-6.62V7.79z"/>
		<path class="st0" d="M122.74,20.08c-1.11,0.99-3.45,1.03-5.49,1.4c-2.04,0.42-3.92,1.11-3.92,3.55c0,2.46,1.92,3.08,4.06,3.08
			c5.17,0,5.37-4.11,5.37-5.54v-2.49H122.74z M107.45,15.21c0.37-6.21,5.91-8.08,11.33-8.08c4.8,0,10.59,1.08,10.59,6.85v12.53
			c0,2.19,0.22,4.38,0.84,5.37h-6.72c-0.22-0.74-0.42-1.53-0.47-2.34c-2.09,2.19-5.17,2.98-8.1,2.98c-4.58,0-8.2-2.29-8.2-7.22
			c0-5.47,4.11-6.77,8.2-7.31c4.06-0.62,7.83-0.47,7.83-3.18c0-2.86-1.97-3.28-4.28-3.28c-2.51,0-4.16,1.03-4.38,3.64h-6.62V15.21z"
			/>
		<path class="st0" d="M134.1,7.79h6.3v3.35h0.15c1.67-2.71,4.56-4.01,7.36-4.01c7.04,0,8.82,3.96,8.82,9.92v14.82h-6.62V18.26
			c0-3.96-1.16-5.93-4.24-5.93c-3.6,0-5.12,1.99-5.12,6.9v12.63h-6.62V7.79H134.1z"/>
		<path class="st0" d="M166.26,24.05c0.05,2.88,2.46,4.06,5.07,4.06c1.92,0,4.33-0.74,4.33-3.08c0-1.99-2.76-2.71-7.51-3.72
			c-3.82-0.84-7.63-2.19-7.63-6.43c0-6.16,5.32-7.73,10.49-7.73c5.27,0,10.12,1.77,10.64,7.68h-6.3c-0.2-2.56-2.14-3.28-4.53-3.28
			c-1.5,0-3.69,0.27-3.69,2.24c0,2.39,3.72,2.71,7.51,3.6c3.87,0.89,7.66,2.29,7.66,6.77c0,6.33-5.49,8.4-11.01,8.4
			c-5.59,0-11.06-2.09-11.33-8.5h6.3V24.05z"/>
		<path class="st0" d="M15.92,14.86c-0.15-3.64-2.93-5.27-6.3-5.27c-2.61,0-5.69,1.03-5.69,4.16c0,2.61,2.98,3.55,5,4.06l3.92,0.89
			c3.35,0.52,6.85,2.46,6.85,6.67c0,5.22-5.17,7.24-9.65,7.24c-5.59,0-9.43-2.61-9.87-8.5h2.93c0.22,3.96,3.18,6.01,7.09,6.01
			c2.76,0,6.58-1.21,6.58-4.58c0-2.81-2.61-3.72-5.27-4.38l-3.77-0.84c-3.82-1.03-6.72-2.34-6.72-6.43c0-4.9,4.8-6.77,9.04-6.77
			c4.8,0,8.62,2.51,8.82,7.73C18.85,14.86,15.92,14.86,15.92,14.86z"/>
		<path class="st0" d="M43.23,31.9h-2.71v-4.36h-0.1c-1.53,3.23-4.7,5.05-8.3,5.05c-6.06,0-8.45-3.55-8.45-9.14V7.84h2.93v15.66
			c0.15,4.33,1.77,6.62,6.43,6.62c5.02,0,7.24-4.75,7.24-9.65V7.84h2.93V31.9H43.23z"/>
		<path class="st0" d="M63.4,14.86c-0.15-3.64-2.93-5.27-6.3-5.27c-2.61,0-5.69,1.03-5.69,4.16c0,2.61,2.98,3.55,5,4.06l3.92,0.89
			c3.35,0.52,6.85,2.46,6.85,6.67c0,5.22-5.17,7.24-9.65,7.24c-5.59,0-9.43-2.61-9.87-8.5h2.93c0.22,3.96,3.18,6.01,7.09,6.01
			c2.76,0,6.58-1.21,6.58-4.58c0-2.81-2.61-3.72-5.27-4.38l-3.77-0.84c-3.82-1.03-6.72-2.34-6.72-6.43c0-4.9,4.8-6.77,9.04-6.77
			c4.8,0,8.62,2.51,8.82,7.73C66.33,14.86,63.4,14.86,63.4,14.86z"/>
		<path class="st0" d="M79.94,7.79h4.85v4.43h-4.85v11.94c0,2.24,0.57,2.81,2.81,2.81c0.69,0,1.35-0.05,2.04-0.2v5.17
			c-1.11,0.2-2.56,0.22-3.87,0.22c-4.06,0-7.61-0.94-7.61-5.74V12.2h-4.01V7.77h4.01V0.53h6.62V7.79z"/>
		<path class="st0" d="M88.78,7.79h6.3v4.48h0.1c1.21-3.03,4.48-5.12,7.68-5.12c0.47,0,1.03,0.1,1.45,0.25v6.16
			c-0.62-0.15-1.58-0.22-2.39-0.22c-4.85,0-6.53,3.5-6.53,7.73v10.86h-6.62V7.79z"/>
		<path class="st0" d="M122.74,20.08c-1.11,0.99-3.45,1.03-5.49,1.4c-2.04,0.42-3.92,1.11-3.92,3.55c0,2.46,1.92,3.08,4.06,3.08
			c5.17,0,5.37-4.11,5.37-5.54v-2.49H122.74z M107.45,15.21c0.37-6.21,5.91-8.08,11.33-8.08c4.8,0,10.59,1.08,10.59,6.85v12.53
			c0,2.19,0.22,4.38,0.84,5.37h-6.72c-0.22-0.74-0.42-1.53-0.47-2.34c-2.09,2.19-5.17,2.98-8.1,2.98c-4.58,0-8.2-2.29-8.2-7.22
			c0-5.47,4.11-6.77,8.2-7.31c4.06-0.62,7.83-0.47,7.83-3.18c0-2.86-1.97-3.28-4.28-3.28c-2.51,0-4.16,1.03-4.38,3.64h-6.62V15.21z"
			/>
		<path class="st0" d="M134.1,7.79h6.3v3.35h0.15c1.67-2.71,4.56-4.01,7.36-4.01c7.04,0,8.82,3.96,8.82,9.92v14.82h-6.62V18.26
			c0-3.96-1.16-5.93-4.24-5.93c-3.6,0-5.12,1.99-5.12,6.9v12.63h-6.62V7.79H134.1z"/>
		<path class="st0" d="M166.26,24.05c0.05,2.88,2.46,4.06,5.07,4.06c1.92,0,4.33-0.74,4.33-3.08c0-1.99-2.76-2.71-7.51-3.72
			c-3.82-0.84-7.63-2.19-7.63-6.43c0-6.16,5.32-7.73,10.49-7.73c5.27,0,10.12,1.77,10.64,7.68h-6.3c-0.2-2.56-2.14-3.28-4.53-3.28
			c-1.5,0-3.69,0.27-3.69,2.24c0,2.39,3.72,2.71,7.51,3.6c3.87,0.89,7.66,2.29,7.66,6.77c0,6.33-5.49,8.4-11.01,8.4
			c-5.59,0-11.06-2.09-11.33-8.5h6.3V24.05z"/>
	</g>
	<g>
	</g>
	<g>
	</g>
	<g>
	</g>
	<g>
	</g>
	<g>
	</g>
	<g>
	</g>
	<g>
	</g>
	<g>
	</g>
	<g>
	</g>
	<g>
	</g>
	<g>
	</g>
	<g>
	</g>
	<g>
	</g>
	<g>
	</g>
	<g>
	</g>
</g>
</svg>
